<mxfile host="app.diagrams.net" modified="2024-04-01T08:22:54.506Z" agent="Mozilla/5.0 (Macintosh; Intel Mac OS X 10_15_7) AppleWebKit/537.36 (KHTML, like Gecko) Chrome/121.0.0.0 Safari/537.36" version="24.2.1" etag="3HOToLteDeSA0kXeKigx" type="github">
  <diagram name="第 1 页" id="iePh8DqCDksd-90mrGlf">
    <mxGraphModel>
      <root>
        <mxCell id="0" />
        <mxCell id="1" parent="0" />
      </root>
    </mxGraphModel>
  </diagram>
</mxfile>
